<svg xmlns="http://www.w3.org/2000/svg"
shape-rendering="geometricPrecision"
width="4000" height="4000" viewBox="0 0 602 602"><rect width="100%" height="100%" fill="#FFFFFF" />
  <metadata>null</metadata>

<path d="
M 27.923 474.123
C 27.975 473.434 27.967 473.853 27.867 472.866
C 31.249 472.755 35.13 472.445 38.477 472.887
C 37.977 479.347 38.426 486.024 38.427 492.507
C 38.427 494.339 38.432 496.171 38.438 498.003
C 38.44 498.803 38.215 499.998 38.525 500.731
C 44.25 500.322 50.048 500.528 55.79 500.48
C 62.3 500.424 68.895 500.143 75.398 500.441
C 76.034 496.794 75.642 492.456 75.65 488.743
C 75.662 483.558 76.027 478.188 75.517 473.029
C 78.95 472.893 82.416 473.023 85.853 472.929
C 86.22 478.563 85.911 484.296 85.924 489.944
C 85.943 498.298 86.157 506.639 86.05 514.992
C 85.954 522.534 85.017 530.657 86.014 538.147
C 83.831 538.565 81.221 538.183 78.994 538.194
C 77.896 538.199 76.645 538.479 75.594 538.167
C 75.943 528.804 76.092 519.084 75.563 509.742
C 73.048 508.923 69.515 509.551 66.876 509.543
C 60.42 509.522 53.961 509.482 47.503 509.479
C 45.225 509.478 42.937 509.411 40.661 509.462
C 39.853 509.48 38.894 509.265 38.387 509.921
C 38.029 515.915 38.222 521.998 38.209 528.002
C 38.202 531.287 37.74 534.996 38.304 538.23
C 34.89 538.131 31.427 538.01 28.028 538.345
C 27.482 536.948 28.062 534.499 28.061 532.992
C 28.06 528.896 28.092 524.798 28.005 520.702
C 27.678 505.201 27.736 489.626 27.923 474.123 Z"
opacity="1" fill="rgb(37,133,184)" fill-rule="evenodd" />
<path d="
M 103.435 522.603
C 103.677 520.941 104.063 519.422 104.782 517.898
C 108.904 509.153 119.581 509.727 127.696 509.74
C 130.054 509.744 132.412 509.776 134.77 509.767
C 135.319 509.765 137.118 510.055 137.517 509.639
C 137.441 507.629 137.292 505.529 136.608 503.617
C 133.641 495.315 121.235 496.475 114.651 498.762
C 112.863 499.383 110.984 500.93 109.199 501.303
C 108.593 499.47 107.699 497.614 106.831 495.878
C 106.476 495.169 105.909 494.333 106.139 493.576
C 109.772 490.816 114.987 489.517 119.421 488.765
C 123.006 488.157 126.832 487.984 130.445 488.475
C 132.544 488.761 134.667 489.383 136.613 490.211
C 150.636 496.181 147.634 513.653 147.634 526
C 147.634 528.897 147.631 531.794 147.651 534.69
C 147.657 535.519 147.385 537.47 147.794 538.184
C 144.404 538.253 140.935 538.289 137.549 538.198
C 137.708 536.188 137.943 534.171 138.001 532.156
C 137.225 532.288 136.173 533.962 135.551 534.534
C 133.907 536.044 131.892 537.084 129.788 537.8
C 120.781 540.863 106.736 538.625 103.855 528.097
C 103.372 526.334 103.298 524.415 103.435 522.603 Z
M 113.436 522.59
C 112.015 531.65 123.876 533.263 130.08 530.722
C 133.045 529.508 136.119 527.42 136.978 524.126
C 137.617 521.673 137.238 519.051 137.393 516.559
C 134.706 516.176 131.895 516.376 129.184 516.369
C 123.045 516.353 115.666 515.458 113.436 522.59 Z"
opacity="1" fill="rgb(33,131,183)" fill-rule="evenodd" />
<path d="
M 143.236 350.203
C 143.313 350.541 143.78 350.957 143.776 351.299
C 143.775 351.441 143.408 351.56 143.524 351.642
C 143.835 351.861 144.588 351.349 144.878 351.257
C 146.564 350.719 148.122 349.832 149.686 349.011
C 156.225 345.577 163.309 342.897 170.541 341.379
C 189.706 337.357 209.205 339.634 227.957 344.514
C 244.14 348.726 259.611 355.973 274.743 362.934
C 310.983 379.603 349.084 399.326 390.046 398.644
C 409.154 398.326 427.478 393.414 444.245 384.277
C 449.534 381.395 454.831 377.728 459.554 373.995
C 461.584 372.391 463.341 370.299 465.427 368.793
C 465.731 368.574 467.357 368.355 467.335 368.875
C 460.14 380.075 449.318 389.529 438.423 396.984
C 428.252 403.943 416.932 409.526 405.023 412.798
C 395.887 415.309 386.915 416.793 377.481 417.567
C 351.105 419.731 324.03 411.874 300.175 401.307
C 269.442 387.695 240.693 367.891 207.465 360.534
C 188.857 356.414 169.097 354.94 150.551 360.434
C 143.444 362.54 136.497 365.169 129.917 368.607
C 128.181 369.514 126.29 370.417 124.733 371.611
C 124.275 371.962 123.333 372.921 122.701 372.679
C 126.204 366.827 131.289 361.357 136.181 356.64
C 138.408 354.492 140.689 351.955 143.236 350.203 Z"
opacity="1" fill="rgb(40,139,188)" fill-rule="evenodd" />
<path d="
M 467.335 368.875
C 467.357 368.355 465.731 368.574 465.427 368.793
C 463.341 370.299 461.584 372.391 459.554 373.995
C 454.831 377.728 449.534 381.395 444.245 384.277
C 427.478 393.414 409.154 398.326 390.046 398.644
C 349.084 399.326 310.983 379.603 274.743 362.934
C 259.611 355.973 244.14 348.726 227.957 344.514
C 209.205 339.634 189.706 337.357 170.541 341.379
C 163.309 342.897 156.225 345.577 149.686 349.011
C 148.122 349.832 146.564 350.719 144.878 351.257
C 144.588 351.349 143.835 351.861 143.524 351.642
C 143.408 351.56 143.775 351.441 143.776 351.299
C 143.78 350.957 143.313 350.541 143.236 350.203
C 144.99 348.222 147.547 346.668 149.697 345.141
C 155.166 341.254 161.066 337.95 167.195 335.23
C 199.176 321.042 235.127 325.79 267.183 337.182
C 280.962 342.078 294.408 347.543 307.994 352.938
C 314.519 355.529 320.853 358.609 327.331 361.314
C 358.97 374.52 393.512 388.581 428.368 381.485
C 434.02 380.335 439.512 378.382 444.808 376.124
C 453.829 372.278 462.077 366.277 469.103 359.496
C 472.478 356.238 475.283 352.4 478.722 349.237
C 479.026 349.099 478.164 351.061 477.995 351.412
C 477.261 352.933 476.397 354.4 475.576 355.878
C 473.15 360.247 470.53 365.019 467.335 368.875 Z"
opacity="1" fill="rgb(52,161,208)" fill-rule="evenodd" />
<path d="
M 167.321 488.938
C 170.488 489.072 174.296 488.283 177.359 488.975
C 177.171 491.354 177.132 493.767 177.275 496.15
C 177.495 496.748 178.494 495.135 178.764 494.74
C 179.573 493.558 180.733 492.481 181.915 491.677
C 185.57 489.189 189.826 488.237 194.218 488.243
C 194.182 490.656 193.963 493.09 193.984 495.497
C 193.987 495.875 194.356 497.624 194.072 497.845
C 191.794 497.814 189.497 497.704 187.275 498.31
C 185.958 498.67 184.713 499.268 183.57 500.008
C 175.493 505.238 177.12 515.794 177.187 524.115
C 177.223 528.618 176.457 533.864 177.297 538.278
C 173.909 538.194 170.513 538.343 167.129 538.242
C 166.953 527.671 167.182 517.074 167.213 506.5
C 167.229 500.775 166.639 494.612 167.321 488.938 Z"
opacity="1" fill="rgb(32,131,183)" fill-rule="evenodd" />
<path d="
M 301.318 226.755
C 301.636 226.966 302.344 227.927 301.777 228.188
C 301.457 228.335 301.201 227.85 301.102 228.012
C 300.471 229.043 300.544 230.807 300.392 231.98
C 299.959 235.311 299.261 238.589 298.686 241.895
C 296.45 254.753 294.43 267.654 292.092 280.494
C 291.487 283.813 290.723 287.089 290.061 290.394
C 289.884 291.282 289.073 293.032 289.479 293.846
C 287.627 293.954 285.869 294.072 284.1 294.698
C 272.458 298.826 270.586 312.804 268.747 323.383
C 268.327 323.586 267.807 323.192 267.401 323.033
C 266.236 322.577 264.929 322.361 263.722 322.026
C 259.051 320.73 254.315 319.587 249.561 318.631
C 236.884 316.082 223.061 314.132 210.129 315.972
C 204.729 316.74 199.371 317.265 194.014 318.383
C 192.621 318.673 190.119 320.118 188.753 319.579
C 190.268 317.98 193.24 317.063 195.187 316.048
C 202.093 312.447 209.617 310.17 217.176 308.368
C 220.969 307.464 226.025 307.049 229.003 304.257
C 230.336 303.006 230.945 301.056 231.481 299.362
C 232.54 296.018 233.09 292.522 234.212 289.2
C 236.794 281.555 240.559 274.874 245.471 268.495
C 259.98 249.651 282.244 239.948 301.318 226.755 Z"
opacity="1" fill="rgb(56,166,212)" fill-rule="evenodd" />
<path d="
M 209.284 469.226
C 211.542 468.985 213.831 469.122 216.099 469.12
C 217.241 469.119 218.51 468.884 219.612 469.175
C 219.636 478.275 219.839 487.433 219.466 496.527
C 220.693 495.672 221.333 494.011 222.491 493.003
C 225.5 490.386 229.249 488.717 233.219 488.289
C 237.683 487.807 242.07 488.306 246.181 490.162
C 250.16 491.958 253.65 494.765 255.998 498.466
C 261.856 507.699 262.177 520.574 255.468 529.526
C 246.84 541.038 228.429 542.602 219.19 531.092
C 219.192 533.421 218.925 536.019 219.232 538.315
C 216.074 538.114 212.623 538.155 209.473 538.466
C 208.704 537.075 209.224 534.327 209.23 532.743
C 209.249 528.328 209.256 523.914 209.241 519.499
C 209.184 502.806 210.164 485.893 209.284 469.226 Z
M 219.456 509.6
C 218.477 515.34 219.351 522.06 223.718 526.284
C 229.294 531.677 239.078 531.723 244.847 526.602
C 247.597 524.162 249.175 520.578 249.78 517.004
C 250.819 510.873 249.062 504.038 244.025 500.06
C 234.835 492.802 221.389 498.266 219.456 509.6 Z"
opacity="1" fill="rgb(38,133,183)" fill-rule="evenodd" />
<path d="
M 288.421 65.466
C 287.125 66.047 287.14 70.513 287 71.918
C 286.211 76.001 284.663 80.991 285.353 85.167
C 285.791 87.812 287.733 90.214 289.249 92.347
C 291.137 95.004 293.666 99.321 296.719 100.686
C 299.843 102.082 304.098 102.075 307.466 102.466
C 314.035 103.228 320.609 104.027 327.156 104.78
C 330.559 106.88 328.045 111.242 326.61 113.584
C 324.959 114.212 322.521 113.709 320.762 113.809
C 320.006 115.975 320.411 119.054 320.41 121.337
C 320.408 126.64 320.568 131.925 320.598 137.224
C 320.609 139.216 320.646 141.207 320.632 143.199
C 320.625 144.092 320.398 145.322 320.706 146.159
C 323.948 145.971 327.264 146.102 330.511 146.182
C 331.681 146.211 333.313 146.002 334.238 146.831
C 335.107 148.067 334.992 149.558 335.071 151.004
C 334.502 150.992 333.35 151.043 332.862 150.68
C 332.458 150.38 332.522 149.296 331.749 149.641
C 329.84 150.495 328.261 153.455 326.725 154.898
C 323.355 158.065 319.097 160.924 314.812 162.706
C 298.764 169.38 280.648 171.004 265.425 179.65
C 259.751 182.873 254.944 187.402 251.004 192.569
C 250.05 193.82 248.942 194.985 248.149 196.351
C 247.797 196.959 247.637 197.792 246.806 197.547
C 247.215 190.122 248.454 182.718 249.128 175.307
C 249.324 173.153 249.505 170.996 249.604 168.835
C 249.646 167.908 249.918 166.682 249.621 165.796
C 245.675 163.467 240.449 162.443 239.344 157.328
C 239.006 155.759 239.067 154.09 239.067 152.494
C 239.066 150.736 239.003 147.214 240.965 146.299
C 241.947 145.84 243.459 146.13 244.511 146.143
C 247.61 146.181 251.465 146.795 254.493 146.15
C 255.016 135.53 253.755 124.79 254.655 114.16
C 252.663 113.545 249.206 114.685 247.623 113.132
C 245.686 111.231 244.846 106.967 246.597 104.731
C 247.552 103.51 249.139 103.236 250.065 102.101
C 251.592 100.231 252.46 97.859 254.012 95.973
C 257.107 92.211 261.421 89.379 265.836 87.399
C 268.297 86.296 270.801 85.341 273.415 84.663
C 274.717 84.326 276.877 84.2 277.998 83.54
C 278.126 80.436 277.768 77.022 279.101 74.105
C 280.393 71.276 283.051 69.398 284.546 66.697
C 285.675 64.657 285.856 62.331 286.892 60.334
C 287.552 61.879 288.032 63.819 288.421 65.466 Z
M 276.939 130.098
C 276.36 134.778 277.033 139.563 276.702 144.257
C 278.266 144.56 280.104 144.214 281.698 144.206
C 284.966 144.19 288.235 144.228 291.503 144.218
C 293.612 144.211 296.573 144.765 298.591 144.239
C 298.316 137.997 299.605 130.282 295.758 124.955
C 292.013 119.77 284.768 118.79 280.17 123.507
C 278.348 125.377 277.506 127.611 276.939 130.098 Z"
opacity="1" fill="rgb(91,197,231)" fill-rule="evenodd" />
<path d="
M 246.806 197.547
C 247.637 197.792 247.797 196.959 248.149 196.351
C 248.942 194.985 250.05 193.82 251.004 192.569
C 254.944 187.402 259.751 182.873 265.425 179.65
C 280.648 171.004 298.764 169.38 314.812 162.706
C 319.097 160.924 323.355 158.065 326.725 154.898
C 328.261 153.455 329.84 150.495 331.749 149.641
C 332.522 149.296 332.458 150.38 332.862 150.68
C 333.35 151.043 334.502 150.992 335.071 151.004
C 335.312 153.252 335.732 156.417 334.753 158.504
C 333.835 159.719 332.966 160.789 331.654 161.6
C 330.408 162.37 328.886 162.724 327.865 163.826
C 325.393 166.491 323.93 170.199 321.673 173.086
C 317.55 178.357 312.633 182.62 307.396 186.736
C 292.295 198.607 274.23 206.005 260.068 219.219
C 254.98 223.967 250.236 229.364 246.666 235.359
C 245.212 237.8 243.898 240.287 242.813 242.913
C 242.624 243.371 241.99 245.54 241.516 245.476
C 241.572 241.629 242.321 237.679 242.707 233.842
C 243.541 225.55 244.573 217.277 245.462 208.99
C 245.858 205.294 246.948 201.247 246.806 197.547 Z"
opacity="1" fill="rgb(67,177,218)" fill-rule="evenodd" />
<path d="
M 272.486 512.115
C 272.64 508.892 273.454 505.563 274.893 502.677
C 276.836 498.783 279.655 495.042 283.344 492.636
C 294.659 485.256 311.276 486.688 319.753 497.762
C 321.509 500.055 322.885 502.749 323.737 505.507
C 324.599 508.297 325.265 511.375 325.045 514.315
C 324.679 519.217 323.585 523.582 320.855 527.736
C 312.268 540.804 292.275 542.631 280.703 532.525
C 274.892 527.45 272.124 519.703 272.486 512.115 Z
M 282.914 511.098
C 282.15 516.79 283.973 523.104 288.581 526.765
C 298.25 534.448 313.004 528.79 314.57 516.444
C 315.369 510.141 313.266 503.344 307.979 499.521
C 301.845 495.086 292.339 495.895 287.17 501.519
C 284.775 504.125 283.382 507.618 282.914 511.098 Z"
opacity="1" fill="rgb(40,133,184)" fill-rule="evenodd" />
<path d="
M 287 71.918
C 287.4 72.391 287.869 73.446 288.422 73.7
C 289.078 74.002 289.82 73.243 290.22 74.633
C 291.054 77.527 290.004 80.952 291.981 83.529
C 293.983 86.139 298.183 86.814 300.801 88.728
C 305.03 91.818 308.044 96.243 312.149 99.378
C 314.304 101.024 318.34 101.767 321.021 101.905
C 322.423 101.976 322.318 99.852 323.436 101.045
C 324.359 102.589 325.931 103.517 327.156 104.78
C 320.609 104.027 314.035 103.228 307.466 102.466
C 304.098 102.075 299.843 102.082 296.719 100.686
C 293.666 99.321 291.137 95.004 289.249 92.347
C 287.733 90.214 285.791 87.812 285.353 85.167
C 284.663 80.991 286.211 76.001 287 71.918 Z"
opacity="1" fill="rgb(133,218,242)" fill-rule="evenodd" />
<path d="
M 288.421 65.466
C 289.083 66.153 289.461 67.066 290.105 67.784
C 292.223 70.147 294.632 72.026 295.641 75.169
C 296.511 77.879 296.165 80.795 296.939 83.458
C 307.775 85.291 317.981 91.415 323.436 101.045
C 322.318 99.852 322.423 101.976 321.021 101.905
C 318.34 101.767 314.304 101.024 312.149 99.378
C 308.044 96.243 305.03 91.818 300.801 88.728
C 298.183 86.814 293.983 86.139 291.981 83.529
C 290.004 80.952 291.054 77.527 290.22 74.633
C 289.82 73.243 289.078 74.002 288.422 73.7
C 287.869 73.446 287.4 72.391 287 71.918
C 287.14 70.513 287.125 66.047 288.421 65.466 Z"
opacity="1" fill="rgb(163,228,246)" fill-rule="evenodd" />
<path d="
M 301.318 226.755
C 303.53 224.41 306.687 222.722 309.155 220.626
C 310.233 219.709 311.775 217.705 313.098 217.277
C 312.702 221.569 312.942 225.913 312.819 230.227
C 312.598 238.002 312.18 245.76 312.015 253.538
C 311.541 275.751 311.285 297.988 311.864 320.207
C 312.051 327.395 312.75 334.641 313.062 341.76
C 310.991 341.036 311.341 339.612 311.02 337.674
C 310.469 334.335 310.076 330.969 309.509 327.633
C 307.616 316.505 307.213 298.689 294.093 294.683
C 292.565 294.216 291.075 293.925 289.479 293.846
C 289.073 293.032 289.884 291.282 290.061 290.394
C 290.723 287.089 291.487 283.813 292.092 280.494
C 294.43 267.654 296.45 254.753 298.686 241.895
C 299.261 238.589 299.959 235.311 300.392 231.98
C 300.544 230.807 300.471 229.043 301.102 228.012
C 301.201 227.85 301.457 228.335 301.777 228.188
C 302.344 227.927 301.636 226.966 301.318 226.755 Z"
opacity="1" fill="rgb(82,189,227)" fill-rule="evenodd" />
<path d="
M 313.098 217.277
C 314.322 215.595 315.992 214.176 317.396 212.638
C 318.375 211.565 319.267 210.186 320.371 209.263
C 321.082 212.41 320.892 215.748 320.934 218.96
C 321.012 225.033 320.873 231.315 321.463 237.359
C 322.279 245.729 322.247 254.274 322.765 262.677
C 323.686 277.636 325.047 292.625 326.568 307.536
C 328.185 323.38 330.439 339.344 338.543 353.363
C 329.799 350.235 321.884 344.67 313.062 341.76
C 312.75 334.641 312.051 327.395 311.864 320.207
C 311.285 297.988 311.541 275.751 312.015 253.538
C 312.18 245.76 312.598 238.002 312.819 230.227
C 312.942 225.913 312.702 221.569 313.098 217.277 Z"
opacity="1" fill="rgb(102,201,235)" fill-rule="evenodd" />
<path d="
M 360.02 346.429
C 360.402 348.136 361.37 348.619 362.482 349.854
C 364.791 352.419 367.407 354.822 370.321 356.692
C 377.099 361.041 383.835 363.883 391.361 366.63
C 394.763 367.872 398.23 368.889 401.632 370.105
C 402.487 370.411 403.22 371.113 404.071 371.342
C 405.385 371.697 407.146 371.359 408.504 371.344
C 403.083 372.138 397.297 371.129 391.898 370.516
C 378.51 368.995 365.604 364.862 353.135 359.826
C 348.208 357.835 343.482 355.299 338.543 353.363
C 330.439 339.344 328.185 323.38 326.568 307.536
C 325.047 292.625 323.686 277.636 322.765 262.677
C 322.247 254.274 322.279 245.729 321.463 237.359
C 320.873 231.315 321.012 225.033 320.934 218.96
C 320.892 215.748 321.082 212.41 320.371 209.263
C 321.742 206.535 323.763 204.145 325.11 201.351
C 326.727 197.998 327.445 194.656 328.331 191.072
C 329.39 194.232 329.339 198.011 329.849 201.324
C 331.219 210.216 332.116 219.203 333.215 228.132
C 334.79 240.944 336.322 253.961 338.539 266.673
C 340.707 279.106 341.61 291.785 343.585 304.257
C 345.243 314.733 346.321 325.446 350.812 335.194
C 352.721 339.337 355.967 344.101 360.02 346.429 Z"
opacity="1" fill="rgb(141,219,242)" fill-rule="evenodd" />
<path d="
M 331.519 119.616
C 331.475 119.42 331.43 119.223 331.386 119.027
C 343.408 115.215 356.003 112.613 368.279 109.723
C 384.324 105.945 400.228 101.425 416.348 97.99
C 427.312 95.655 438.122 92.494 449.073 90.195
C 451.632 89.658 454.146 88.781 456.737 88.364
C 456.967 88.327 459.256 87.843 459.326 88.267
C 459.343 88.376 457.686 88.666 457.53 88.72
C 455.842 89.3 454.125 89.562 452.386 89.946
C 444.617 91.66 436.938 94.142 429.281 96.32
C 415.56 100.224 401.848 104.262 388.077 108.019
C 369.419 113.108 351.074 119.417 332.408 124.485
C 331.585 123.108 331.868 121.162 331.519 119.616 Z"
opacity="0.996" fill="rgb(136,208,231)" fill-rule="evenodd" />
<path d="
M 331.976 135.614
C 332.073 134.934 332.141 134.266 332.165 133.579
C 336.229 134.072 340.307 135.543 344.241 136.655
C 351.382 138.674 358.526 140.661 365.657 142.725
C 382.671 147.65 399.852 152.116 416.772 157.335
C 426.301 160.273 436.164 162.17 445.59 165.34
C 448.39 166.281 451.632 167.467 454.545 167.896
C 455.6 168.051 456.608 168.442 457.623 168.751
C 458.053 168.882 458.545 168.886 458.987 168.966
C 459.118 168.989 459.503 169.062 459.371 169.076
C 457.23 169.297 455.137 168.432 453.098 167.996
C 450.121 167.358 447.227 166.629 444.295 165.756
C 436.484 163.431 428.341 161.954 420.392 160.123
C 390.903 153.333 361.524 145.508 331.871 139.47
C 331.422 138.435 331.861 136.73 331.976 135.614 Z"
opacity="1" fill="rgb(127,205,229)" fill-rule="evenodd" />
<path d="
M 340.237 488.827
C 343.725 488.932 347.214 488.809 350.703 488.773
C 351.032 496.487 350.726 504.279 350.704 512.001
C 350.692 516.166 350.172 520.836 352.376 524.573
C 357.383 533.06 370.823 530.933 375.255 523.219
C 377.536 519.246 377.108 514.753 377.12 510.337
C 377.139 503.285 377.251 496.216 377.113 489.168
C 377.488 488.583 378.916 488.884 379.597 488.901
C 382.193 488.963 384.806 488.921 387.401 488.875
C 386.888 505.245 387.141 521.879 387.64 538.233
C 384.283 537.859 380.424 538.884 377.168 538.139
C 377.287 535.825 377.442 533.38 377.238 531.073
C 375.595 533.052 374.013 534.871 371.734 536.137
C 362.235 541.414 347.409 539.348 342.692 528.515
C 340.305 523.032 340.393 517.134 340.347 511.263
C 340.288 503.783 340.331 496.305 340.237 488.827 Z"
opacity="1" fill="rgb(39,133,185)" fill-rule="evenodd" />
<path d="
M 360.02 346.429
C 362.58 347.782 364.977 349.33 367.665 350.446
C 381.63 356.247 398.071 358.597 413.117 357.974
C 423.315 357.551 433.75 355.932 443.136 351.728
C 448.075 349.516 452.967 346.63 457.138 343.167
C 459.514 341.194 461.534 338.419 464.052 336.705
C 464.216 337.84 462.928 339.571 462.422 340.558
C 460.671 343.975 458.577 347.054 456.144 350.018
C 444.395 364.327 426.696 371.035 408.504 371.344
C 407.146 371.359 405.385 371.697 404.071 371.342
C 403.22 371.113 402.487 370.411 401.632 370.105
C 398.23 368.889 394.763 367.872 391.361 366.63
C 383.835 363.883 377.099 361.041 370.321 356.692
C 367.407 354.822 364.791 352.419 362.482 349.854
C 361.37 348.619 360.402 348.136 360.02 346.429 Z"
opacity="1" fill="rgb(135,217,241)" fill-rule="evenodd" />
<path d="
M 407.993 504.617
C 408.383 500.978 408.147 497.161 408.18 493.501
C 408.193 492.002 407.915 490.29 408.251 488.835
C 411.579 488.877 414.906 488.794 418.233 488.789
C 418.677 490.796 418.575 494.476 418.008 496.455
C 419.267 495.741 420.237 493.711 421.372 492.7
C 424.327 490.066 428.129 488.681 432.05 488.406
C 433.044 488.336 434.477 488.02 435.393 488.448
C 435.027 491.275 435.147 494.465 435.32 497.31
C 433.735 497.804 431.748 497.508 430.082 497.71
C 427.348 498.043 424.961 499.215 422.869 500.999
C 418.742 504.518 418.318 509.468 418.184 514.496
C 418.064 518.995 418.171 523.505 418.194 528.005
C 418.21 531.205 417.63 535.114 418.327 538.229
C 414.95 538.25 411.57 538.112 408.195 538.245
C 407.746 537.525 408.057 536.319 408.069 535.49
C 408.1 533.33 408.077 531.168 408.072 529.007
C 408.053 520.895 407.617 512.723 407.993 504.617 Z"
opacity="1" fill="rgb(36,132,184)" fill-rule="evenodd" />
<path d="
M 446.929 501.096
C 447.58 496.019 449.352 491.102 452.122 486.801
C 464.13 468.153 492.694 467.461 506.838 483.735
C 509.828 487.175 511.751 491.545 513.038 495.883
C 514.345 500.292 514.677 505.401 514.081 509.95
C 512.869 519.203 507.971 527.755 500.192 532.997
C 481.99 545.263 453.536 537.364 447.941 515.019
C 446.809 510.498 446.333 505.736 446.929 501.096 Z
M 454.453 503.611
C 454.176 507.5 454.724 511.687 456.116 515.336
C 462.678 532.535 485.904 537.333 499.149 524.694
C 501.223 522.715 502.788 520.194 504.015 517.618
C 505.448 514.608 506.375 511.323 506.607 507.991
C 506.915 503.551 506.378 499.008 504.714 494.864
C 503.412 491.623 501.356 488.122 498.79 485.707
C 489.295 476.769 473.194 476.577 463.321 485.041
C 457.897 489.689 454.954 496.572 454.453 503.611 Z"
opacity="1" fill="rgb(89,185,218)" fill-rule="evenodd" />
<path d="
M 525.397 529.987
C 526.391 528.494 527.382 526.686 527.707 524.912
C 530.682 526.6 533.388 528.559 536.615 529.81
C 543.144 532.34 550.623 532.945 557.431 531.325
C 559.82 530.756 562.438 529.624 564.145 527.81
C 567.127 524.64 567.472 519.123 564.85 515.678
C 562.383 512.438 557.959 511.375 554.239 510.344
C 544.475 507.638 529.713 506.164 527.173 494.079
C 526.747 492.05 526.689 489.93 526.971 487.879
C 529.089 472.482 547.924 470.295 560.193 473.023
C 563.355 473.725 566.329 474.722 569.239 476.148
C 570.134 476.586 571.428 477.034 572.093 477.795
C 571.241 479.686 570.395 481.745 569.756 483.722
C 569.483 483.923 567.984 482.847 567.641 482.675
C 565.667 481.688 563.803 480.621 561.664 480.018
C 560.124 479.583 558.552 479.211 556.966 478.984
C 549.325 477.888 536.963 478.166 534.543 487.475
C 534.262 488.558 534.231 489.69 534.293 490.802
C 534.673 497.63 541.366 499.524 546.826 501.177
C 556.605 504.138 571.601 504.988 574.104 517.373
C 574.473 519.201 574.473 521.125 574.312 522.977
C 573.683 530.206 567.914 535.088 561.454 537.33
C 552.051 540.593 540.918 539.263 531.972 535.188
C 529.548 534.083 526.976 532.888 524.977 531.094
C 525.182 530.31 525.038 530.677 525.397 529.987 Z"
opacity="1" fill="rgb(86,185,218)" fill-rule="evenodd" />

</svg>